<mxfile host="Electron" modified="2024-03-25T21:55:56.605Z" agent="Mozilla/5.0 (Windows NT 10.0; Win64; x64) AppleWebKit/537.36 (KHTML, like Gecko) draw.io/24.1.0 Chrome/120.0.6099.109 Electron/28.1.0 Safari/537.36" etag="86RLU735tP9zj30K9dbV" version="24.1.0" type="device">
  <diagram id="bsTosLUH5mfE9uCYUgKQ" name="Page-1">
    <mxGraphModel dx="-6630" dy="629" grid="1" gridSize="10" guides="1" tooltips="1" connect="1" arrows="1" fold="1" page="1" pageScale="1" pageWidth="1920" pageHeight="1200" math="0" shadow="0">
      <root>
        <mxCell id="0" />
        <mxCell id="1" parent="0" />
        <mxCell id="CPYO5AbDpD3RxbPcnfMz-234" value="" style="rounded=0;whiteSpace=wrap;html=1;fontSize=22;fillColor=#f5f5f5;fontColor=#333333;strokeColor=#666666;direction=east;strokeWidth=2;fontStyle=1" parent="1" vertex="1">
          <mxGeometry x="8680" y="170" width="1790" height="1180" as="geometry" />
        </mxCell>
        <mxCell id="CPYO5AbDpD3RxbPcnfMz-236" value="" style="rounded=0;whiteSpace=wrap;html=1;strokeWidth=2;fontStyle=1;" parent="1" vertex="1">
          <mxGeometry x="8710" y="210" width="1730" height="340" as="geometry" />
        </mxCell>
        <mxCell id="CPYO5AbDpD3RxbPcnfMz-237" value="CLAIMANT/&lt;br&gt;SUBSCRIBER" style="text;html=1;align=center;verticalAlign=middle;resizable=0;points=[];autosize=1;strokeColor=none;fillColor=none;fontStyle=1;fontSize=23;strokeWidth=2;horizontal=0;" parent="1" vertex="1">
          <mxGeometry x="8709" y="275" width="80" height="170" as="geometry" />
        </mxCell>
        <mxCell id="CPYO5AbDpD3RxbPcnfMz-238" style="edgeStyle=orthogonalEdgeStyle;rounded=0;orthogonalLoop=1;jettySize=auto;html=1;exitX=1;exitY=0.5;exitDx=0;exitDy=0;exitPerimeter=0;entryX=0;entryY=0.5;entryDx=0;entryDy=0;strokeColor=#00CC00;strokeWidth=2;fontStyle=1;" parent="1" source="CPYO5AbDpD3RxbPcnfMz-239" edge="1">
          <mxGeometry relative="1" as="geometry">
            <mxPoint x="8971" y="320" as="targetPoint" />
          </mxGeometry>
        </mxCell>
        <mxCell id="CPYO5AbDpD3RxbPcnfMz-239" value="&lt;b style=&quot;font-size: 11px;&quot;&gt;START&lt;br&gt;(ONLINE)&lt;br&gt;&lt;/b&gt;" style="strokeWidth=2;html=1;shape=mxgraph.flowchart.terminator;whiteSpace=wrap;fillColor=#d5e8d4;strokeColor=#82b366;fontSize=11;" parent="1" vertex="1">
          <mxGeometry x="8840" y="300" width="100" height="40" as="geometry" />
        </mxCell>
        <mxCell id="CPYO5AbDpD3RxbPcnfMz-240" value="LM.1" style="text;html=1;align=center;verticalAlign=middle;resizable=0;points=[];autosize=1;strokeColor=none;fillColor=none;fontStyle=1;strokeWidth=2;fontSize=23;" parent="1" vertex="1">
          <mxGeometry x="9535" y="170" width="80" height="40" as="geometry" />
        </mxCell>
        <mxCell id="CPYO5AbDpD3RxbPcnfMz-241" value="C" style="ellipse;whiteSpace=wrap;html=1;aspect=fixed;strokeWidth=2;fontStyle=1;fontSize=22;direction=south;" parent="1" vertex="1">
          <mxGeometry x="8710" y="175" width="30" height="30" as="geometry" />
        </mxCell>
        <mxCell id="CPYO5AbDpD3RxbPcnfMz-242" value="&lt;font style=&quot;font-size: 14px;&quot;&gt;LEGEND&lt;/font&gt;" style="swimlane;whiteSpace=wrap;html=1;" parent="1" vertex="1">
          <mxGeometry x="10470" y="210" width="200" height="230" as="geometry" />
        </mxCell>
        <mxCell id="CPYO5AbDpD3RxbPcnfMz-243" value="KM" style="ellipse;whiteSpace=wrap;html=1;fillColor=#dae8fc;strokeColor=#6c8ebf;gradientColor=#7ea6e0;fontStyle=1" parent="CPYO5AbDpD3RxbPcnfMz-242" vertex="1">
          <mxGeometry x="10" y="30" width="30" height="26" as="geometry" />
        </mxCell>
        <mxCell id="CPYO5AbDpD3RxbPcnfMz-244" value="IDA" style="ellipse;whiteSpace=wrap;html=1;fillColor=#dae8fc;strokeColor=#6c8ebf;gradientColor=#7ea6e0;fontStyle=1" parent="CPYO5AbDpD3RxbPcnfMz-242" vertex="1">
          <mxGeometry x="10" y="131" width="30" height="26" as="geometry" />
        </mxCell>
        <mxCell id="CPYO5AbDpD3RxbPcnfMz-245" value="HSM" style="ellipse;whiteSpace=wrap;html=1;fillColor=#dae8fc;strokeColor=#6c8ebf;gradientColor=#7ea6e0;fontStyle=1" parent="CPYO5AbDpD3RxbPcnfMz-242" vertex="1">
          <mxGeometry x="10" y="91" width="30" height="26" as="geometry" />
        </mxCell>
        <mxCell id="CPYO5AbDpD3RxbPcnfMz-246" value="KR" style="ellipse;whiteSpace=wrap;html=1;fillColor=#dae8fc;strokeColor=#6c8ebf;gradientColor=#7ea6e0;fontStyle=1" parent="CPYO5AbDpD3RxbPcnfMz-242" vertex="1">
          <mxGeometry x="10" y="59" width="30" height="26" as="geometry" />
        </mxCell>
        <mxCell id="CPYO5AbDpD3RxbPcnfMz-247" value="Key Manager" style="text;html=1;strokeColor=none;fillColor=none;align=center;verticalAlign=middle;whiteSpace=wrap;rounded=0;fontSize=14;" parent="CPYO5AbDpD3RxbPcnfMz-242" vertex="1">
          <mxGeometry x="40" y="30" width="160" height="28" as="geometry" />
        </mxCell>
        <mxCell id="CPYO5AbDpD3RxbPcnfMz-248" value="Key Revocation" style="text;html=1;strokeColor=none;fillColor=none;align=center;verticalAlign=middle;whiteSpace=wrap;rounded=0;fontSize=14;" parent="CPYO5AbDpD3RxbPcnfMz-242" vertex="1">
          <mxGeometry x="40" y="58" width="160" height="28" as="geometry" />
        </mxCell>
        <mxCell id="CPYO5AbDpD3RxbPcnfMz-249" value="Hardware Security Module" style="text;html=1;strokeColor=none;fillColor=none;align=center;verticalAlign=middle;whiteSpace=wrap;rounded=0;fontSize=14;" parent="CPYO5AbDpD3RxbPcnfMz-242" vertex="1">
          <mxGeometry x="40" y="90" width="160" height="28" as="geometry" />
        </mxCell>
        <mxCell id="CPYO5AbDpD3RxbPcnfMz-250" value="ID Authentication (DB)" style="text;html=1;strokeColor=none;fillColor=none;align=center;verticalAlign=middle;whiteSpace=wrap;rounded=0;fontSize=14;" parent="CPYO5AbDpD3RxbPcnfMz-242" vertex="1">
          <mxGeometry x="40" y="130" width="160" height="28" as="geometry" />
        </mxCell>
        <mxCell id="CPYO5AbDpD3RxbPcnfMz-251" value="AC" style="ellipse;whiteSpace=wrap;html=1;fillColor=#dae8fc;strokeColor=#6c8ebf;gradientColor=#7ea6e0;fontStyle=1" parent="CPYO5AbDpD3RxbPcnfMz-242" vertex="1">
          <mxGeometry x="10" y="161" width="30" height="26" as="geometry" />
        </mxCell>
        <mxCell id="CPYO5AbDpD3RxbPcnfMz-252" value="Access Control" style="text;html=1;strokeColor=none;fillColor=none;align=center;verticalAlign=middle;whiteSpace=wrap;rounded=0;fontSize=14;" parent="CPYO5AbDpD3RxbPcnfMz-242" vertex="1">
          <mxGeometry x="40" y="160" width="160" height="28" as="geometry" />
        </mxCell>
        <mxCell id="CPYO5AbDpD3RxbPcnfMz-253" value="Certificate Authority" style="text;html=1;strokeColor=none;fillColor=none;align=center;verticalAlign=middle;whiteSpace=wrap;rounded=0;fontSize=14;" parent="CPYO5AbDpD3RxbPcnfMz-242" vertex="1">
          <mxGeometry x="40" y="190" width="160" height="28" as="geometry" />
        </mxCell>
        <mxCell id="CPYO5AbDpD3RxbPcnfMz-254" value="CA" style="ellipse;whiteSpace=wrap;html=1;fillColor=#dae8fc;strokeColor=#6c8ebf;gradientColor=#7ea6e0;fontStyle=1" parent="CPYO5AbDpD3RxbPcnfMz-242" vertex="1">
          <mxGeometry x="10" y="191" width="30" height="26" as="geometry" />
        </mxCell>
        <mxCell id="CPYO5AbDpD3RxbPcnfMz-255" value="" style="rounded=0;whiteSpace=wrap;html=1;strokeWidth=2;fontStyle=1;" parent="1" vertex="1">
          <mxGeometry x="8710" y="564" width="1730" height="300" as="geometry" />
        </mxCell>
        <mxCell id="CPYO5AbDpD3RxbPcnfMz-256" value="" style="rounded=0;whiteSpace=wrap;html=1;strokeWidth=2;fontStyle=1;" parent="1" vertex="1">
          <mxGeometry x="8710" y="864" width="1730" height="450" as="geometry" />
        </mxCell>
        <mxCell id="CPYO5AbDpD3RxbPcnfMz-257" value="PRIVATE NETWORK&lt;br style=&quot;border-color: var(--border-color);&quot;&gt;SYSTEMS (SERVER)" style="text;html=1;align=center;verticalAlign=middle;resizable=0;points=[];autosize=1;strokeColor=none;fillColor=none;fontStyle=1;fontSize=23;strokeWidth=2;horizontal=0;" parent="1" vertex="1">
          <mxGeometry x="8720" y="964" width="80" height="240" as="geometry" />
        </mxCell>
        <mxCell id="CPYO5AbDpD3RxbPcnfMz-258" value="PUBLIC NETWORK&lt;br style=&quot;border-color: var(--border-color);&quot;&gt;SYSTEMS (CLIENT)" style="text;html=1;align=center;verticalAlign=middle;resizable=0;points=[];autosize=1;strokeColor=none;fillColor=none;fontStyle=1;fontSize=23;strokeWidth=2;horizontal=0;" parent="1" vertex="1">
          <mxGeometry x="8720" y="599" width="80" height="230" as="geometry" />
        </mxCell>
        <mxCell id="CPYO5AbDpD3RxbPcnfMz-260" style="edgeStyle=orthogonalEdgeStyle;rounded=0;orthogonalLoop=1;jettySize=auto;html=1;exitX=0.5;exitY=1;exitDx=0;exitDy=0;strokeColor=#FF2617;strokeWidth=2;fontStyle=1;entryX=0.899;entryY=-0.1;entryDx=0;entryDy=0;entryPerimeter=0;" parent="1" source="CPYO5AbDpD3RxbPcnfMz-261" target="CPYO5AbDpD3RxbPcnfMz-380" edge="1">
          <mxGeometry relative="1" as="geometry">
            <Array as="points" />
          </mxGeometry>
        </mxCell>
        <mxCell id="CPYO5AbDpD3RxbPcnfMz-403" value="RESET COUNTER" style="edgeStyle=orthogonalEdgeStyle;rounded=0;orthogonalLoop=1;jettySize=auto;html=1;exitX=1;exitY=0.5;exitDx=0;exitDy=0;entryX=0.5;entryY=1;entryDx=0;entryDy=0;strokeColor=#00CC00;strokeWidth=2;fontStyle=1;" parent="1" source="CPYO5AbDpD3RxbPcnfMz-261" target="CPYO5AbDpD3RxbPcnfMz-402" edge="1">
          <mxGeometry x="-0.5337" relative="1" as="geometry">
            <mxPoint y="-1" as="offset" />
          </mxGeometry>
        </mxCell>
        <mxCell id="CPYO5AbDpD3RxbPcnfMz-261" value="IF &lt;br&gt;AUTH. &lt;br&gt;SUCCESS" style="rounded=0;whiteSpace=wrap;html=1;fontStyle=1;strokeWidth=2;fontSize=11;shape=rhombus;perimeter=rhombusPerimeter;" parent="1" vertex="1">
          <mxGeometry x="9438" y="944" width="105" height="82.25" as="geometry" />
        </mxCell>
        <mxCell id="CPYO5AbDpD3RxbPcnfMz-270" value="AC" style="ellipse;whiteSpace=wrap;html=1;fillColor=#dae8fc;strokeColor=#6c8ebf;gradientColor=#7ea6e0;fontStyle=1" parent="1" vertex="1">
          <mxGeometry x="9438" y="946.8699999999999" width="30" height="26" as="geometry" />
        </mxCell>
        <mxCell id="CPYO5AbDpD3RxbPcnfMz-271" value="&lt;font style=&quot;font-size: 14px;&quot;&gt;PUBLIC NETWORK&lt;/font&gt;" style="swimlane;whiteSpace=wrap;html=1;" parent="1" vertex="1">
          <mxGeometry x="10470" y="900" width="200" height="167" as="geometry" />
        </mxCell>
        <mxCell id="CPYO5AbDpD3RxbPcnfMz-272" value="DNS SERVERS" style="text;html=1;strokeColor=none;fillColor=none;align=center;verticalAlign=middle;whiteSpace=wrap;rounded=0;fontSize=14;" parent="CPYO5AbDpD3RxbPcnfMz-271" vertex="1">
          <mxGeometry y="27" width="200" height="28" as="geometry" />
        </mxCell>
        <mxCell id="CPYO5AbDpD3RxbPcnfMz-273" value="FTP SERVERS" style="text;html=1;strokeColor=none;fillColor=none;align=center;verticalAlign=middle;whiteSpace=wrap;rounded=0;fontSize=14;" parent="CPYO5AbDpD3RxbPcnfMz-271" vertex="1">
          <mxGeometry y="55" width="200" height="28" as="geometry" />
        </mxCell>
        <mxCell id="CPYO5AbDpD3RxbPcnfMz-274" value="MAIL SERVERS" style="text;html=1;strokeColor=none;fillColor=none;align=center;verticalAlign=middle;whiteSpace=wrap;rounded=0;fontSize=14;" parent="CPYO5AbDpD3RxbPcnfMz-271" vertex="1">
          <mxGeometry y="83" width="200" height="28" as="geometry" />
        </mxCell>
        <mxCell id="CPYO5AbDpD3RxbPcnfMz-275" value="PROXY SERVERS" style="text;html=1;strokeColor=none;fillColor=none;align=center;verticalAlign=middle;whiteSpace=wrap;rounded=0;fontSize=14;" parent="CPYO5AbDpD3RxbPcnfMz-271" vertex="1">
          <mxGeometry y="111" width="200" height="28" as="geometry" />
        </mxCell>
        <mxCell id="CPYO5AbDpD3RxbPcnfMz-276" value="WEB SERVERS" style="text;html=1;strokeColor=none;fillColor=none;align=center;verticalAlign=middle;whiteSpace=wrap;rounded=0;fontSize=14;" parent="CPYO5AbDpD3RxbPcnfMz-271" vertex="1">
          <mxGeometry y="139" width="200" height="28" as="geometry" />
        </mxCell>
        <mxCell id="CPYO5AbDpD3RxbPcnfMz-277" value="USER" style="shape=umlActor;verticalLabelPosition=bottom;verticalAlign=top;html=1;outlineConnect=0;fontStyle=1" parent="1" vertex="1">
          <mxGeometry x="8790" y="330" width="30" height="60" as="geometry" />
        </mxCell>
        <mxCell id="CPYO5AbDpD3RxbPcnfMz-281" value="UPDATE ONLINE: BIOMETRICS DATA" style="text;html=1;align=center;verticalAlign=middle;resizable=0;points=[];autosize=1;strokeColor=none;fillColor=none;fontStyle=1;strokeWidth=2;fontSize=23;" parent="1" vertex="1">
          <mxGeometry x="10010" y="170" width="430" height="40" as="geometry" />
        </mxCell>
        <mxCell id="CPYO5AbDpD3RxbPcnfMz-282" value="VISIT DID PORTAL" style="rounded=0;whiteSpace=wrap;html=1;fontStyle=1;strokeWidth=2;fontSize=11;" parent="1" vertex="1">
          <mxGeometry x="8970" y="300" width="120" height="40" as="geometry" />
        </mxCell>
        <mxCell id="CPYO5AbDpD3RxbPcnfMz-283" style="edgeStyle=orthogonalEdgeStyle;rounded=0;orthogonalLoop=1;jettySize=auto;html=1;exitX=0.5;exitY=1;exitDx=0;exitDy=0;strokeColor=#00CC00;strokeWidth=2;fontStyle=1;" parent="1" source="CPYO5AbDpD3RxbPcnfMz-383" target="CPYO5AbDpD3RxbPcnfMz-286" edge="1">
          <mxGeometry relative="1" as="geometry" />
        </mxCell>
        <mxCell id="CPYO5AbDpD3RxbPcnfMz-284" value="&lt;u&gt;HOMEPAGE&lt;/u&gt;&lt;br&gt;NAVIGATE TO:&lt;br&gt;SETTINGS-&amp;gt;ACCOUNT DETAILS-&amp;gt;&lt;i&gt;&lt;u&gt;REQUEST FOR BIOMETRIC(s) UPDATE&lt;/u&gt;&lt;/i&gt;" style="rounded=0;whiteSpace=wrap;html=1;fontStyle=1;strokeWidth=2;fontSize=11;" parent="1" vertex="1">
          <mxGeometry x="9262.5" y="253.5" width="130" height="90" as="geometry" />
        </mxCell>
        <mxCell id="CPYO5AbDpD3RxbPcnfMz-285" style="edgeStyle=orthogonalEdgeStyle;rounded=0;orthogonalLoop=1;jettySize=auto;html=1;exitX=0.75;exitY=1;exitDx=0;exitDy=0;entryX=0.5;entryY=0;entryDx=0;entryDy=0;strokeColor=#00CC00;strokeWidth=2;fontStyle=1;" parent="1" source="CPYO5AbDpD3RxbPcnfMz-286" target="CPYO5AbDpD3RxbPcnfMz-261" edge="1">
          <mxGeometry relative="1" as="geometry" />
        </mxCell>
        <mxCell id="CPYO5AbDpD3RxbPcnfMz-286" value="AUTHENTICATE USING (ONE):&lt;br&gt;PASSWORD: &lt;u&gt;AU.1.B&lt;/u&gt;&lt;br&gt;OTP: &lt;u&gt;AU.2.C&lt;/u&gt;&lt;br&gt;PIN: &lt;u&gt;AU.1.F&lt;/u&gt;&lt;br&gt;MEM. SECRET: &lt;u&gt;AU.1.D&lt;/u&gt;" style="rounded=0;whiteSpace=wrap;html=1;fontStyle=1;strokeWidth=2;fontSize=11;" parent="1" vertex="1">
          <mxGeometry x="9370" y="390" width="160" height="95" as="geometry" />
        </mxCell>
        <mxCell id="CPYO5AbDpD3RxbPcnfMz-294" style="edgeStyle=orthogonalEdgeStyle;rounded=0;orthogonalLoop=1;jettySize=auto;html=1;exitX=0;exitY=0.5;exitDx=0;exitDy=0;entryX=0.25;entryY=1;entryDx=0;entryDy=0;strokeColor=#00CC00;strokeWidth=2;fontStyle=1;" parent="1" source="CPYO5AbDpD3RxbPcnfMz-297" target="CPYO5AbDpD3RxbPcnfMz-286" edge="1">
          <mxGeometry relative="1" as="geometry" />
        </mxCell>
        <mxCell id="CPYO5AbDpD3RxbPcnfMz-297" value="IF &lt;br&gt;RETRY COUNT &lt;br&gt;&amp;lt; = 3" style="rounded=0;whiteSpace=wrap;html=1;fontStyle=1;strokeWidth=2;shape=rhombus;perimeter=rhombusPerimeter;" parent="1" vertex="1">
          <mxGeometry x="9442.5" y="1189.5" width="95" height="70" as="geometry" />
        </mxCell>
        <mxCell id="CPYO5AbDpD3RxbPcnfMz-315" value="RESET COUNTER" style="edgeStyle=orthogonalEdgeStyle;rounded=0;orthogonalLoop=1;jettySize=auto;html=1;exitX=1;exitY=0.5;exitDx=0;exitDy=0;entryX=0.25;entryY=1;entryDx=0;entryDy=0;strokeColor=#00CC00;strokeWidth=2;fontStyle=1;" parent="1" source="CPYO5AbDpD3RxbPcnfMz-317" target="CPYO5AbDpD3RxbPcnfMz-326" edge="1">
          <mxGeometry x="-0.7474" relative="1" as="geometry">
            <mxPoint as="offset" />
          </mxGeometry>
        </mxCell>
        <mxCell id="CPYO5AbDpD3RxbPcnfMz-316" style="edgeStyle=orthogonalEdgeStyle;rounded=0;orthogonalLoop=1;jettySize=auto;html=1;exitX=0.5;exitY=1;exitDx=0;exitDy=0;strokeColor=#FF2617;strokeWidth=2;fontStyle=1;entryX=0.221;entryY=-0.065;entryDx=0;entryDy=0;entryPerimeter=0;" parent="1" source="CPYO5AbDpD3RxbPcnfMz-317" target="CPYO5AbDpD3RxbPcnfMz-380" edge="1">
          <mxGeometry relative="1" as="geometry">
            <mxPoint x="9030" y="1090" as="targetPoint" />
          </mxGeometry>
        </mxCell>
        <mxCell id="CPYO5AbDpD3RxbPcnfMz-317" value="IF &lt;br&gt;PASS. AUTH. SUCCESS" style="rounded=0;whiteSpace=wrap;html=1;fontStyle=1;strokeWidth=2;fontSize=11;shape=rhombus;perimeter=rhombusPerimeter;" parent="1" vertex="1">
          <mxGeometry x="8980" y="942.5" width="100" height="78.25" as="geometry" />
        </mxCell>
        <mxCell id="CPYO5AbDpD3RxbPcnfMz-318" value="" style="edgeStyle=orthogonalEdgeStyle;rounded=0;orthogonalLoop=1;jettySize=auto;html=1;exitX=0.5;exitY=1;exitDx=0;exitDy=0;entryX=0.5;entryY=0;entryDx=0;entryDy=0;strokeColor=#00CC00;strokeWidth=2;fontStyle=1;" parent="1" source="CPYO5AbDpD3RxbPcnfMz-282" target="CPYO5AbDpD3RxbPcnfMz-320" edge="1">
          <mxGeometry relative="1" as="geometry">
            <mxPoint x="9030" y="340" as="sourcePoint" />
            <mxPoint x="8950" y="1210" as="targetPoint" />
          </mxGeometry>
        </mxCell>
        <mxCell id="CPYO5AbDpD3RxbPcnfMz-319" style="edgeStyle=orthogonalEdgeStyle;rounded=0;orthogonalLoop=1;jettySize=auto;html=1;exitX=0;exitY=0.5;exitDx=0;exitDy=0;entryX=0.5;entryY=0;entryDx=0;entryDy=0;strokeColor=#FF2617;strokeWidth=2;fontStyle=1;" parent="1" source="CPYO5AbDpD3RxbPcnfMz-320" target="CPYO5AbDpD3RxbPcnfMz-321" edge="1">
          <mxGeometry relative="1" as="geometry" />
        </mxCell>
        <mxCell id="CPYO5AbDpD3RxbPcnfMz-320" value="IF&lt;br&gt;ACCOUNT &lt;br&gt;ACTIVE" style="rounded=0;whiteSpace=wrap;html=1;fontStyle=1;strokeWidth=2;fontSize=11;shape=rhombus;perimeter=rhombusPerimeter;" parent="1" vertex="1">
          <mxGeometry x="8980" y="365.5" width="100" height="65" as="geometry" />
        </mxCell>
        <mxCell id="CPYO5AbDpD3RxbPcnfMz-321" value="ACTIVATION OF DID ACCOUNT&lt;br&gt;&lt;u&gt;OB.3.C&lt;/u&gt;" style="rounded=0;whiteSpace=wrap;html=1;fontStyle=1;strokeWidth=2;fontSize=11;" parent="1" vertex="1">
          <mxGeometry x="8850" y="430.5" width="100" height="39.5" as="geometry" />
        </mxCell>
        <mxCell id="CPYO5AbDpD3RxbPcnfMz-322" value="" style="edgeStyle=orthogonalEdgeStyle;rounded=0;orthogonalLoop=1;jettySize=auto;html=1;exitX=0.5;exitY=1;exitDx=0;exitDy=0;entryX=0.5;entryY=0;entryDx=0;entryDy=0;strokeColor=#00CC00;strokeWidth=2;fontStyle=1;" parent="1" source="CPYO5AbDpD3RxbPcnfMz-320" target="CPYO5AbDpD3RxbPcnfMz-323" edge="1">
          <mxGeometry relative="1" as="geometry">
            <mxPoint x="9030" y="432" as="sourcePoint" />
            <mxPoint x="8960" y="1170" as="targetPoint" />
          </mxGeometry>
        </mxCell>
        <mxCell id="CPYO5AbDpD3RxbPcnfMz-323" value="LOGIN PASS. AUTH.:&lt;br&gt;&lt;u&gt;AU.1.B&lt;/u&gt;" style="rounded=0;whiteSpace=wrap;html=1;fontStyle=1;strokeWidth=2;fontSize=11;" parent="1" vertex="1">
          <mxGeometry x="8975" y="448.5" width="110" height="50" as="geometry" />
        </mxCell>
        <mxCell id="CPYO5AbDpD3RxbPcnfMz-324" value="" style="edgeStyle=orthogonalEdgeStyle;rounded=0;orthogonalLoop=1;jettySize=auto;html=1;exitX=0.5;exitY=1;exitDx=0;exitDy=0;entryX=0.5;entryY=0;entryDx=0;entryDy=0;strokeColor=#00CC00;strokeWidth=2;fontStyle=1;" parent="1" source="CPYO5AbDpD3RxbPcnfMz-323" target="CPYO5AbDpD3RxbPcnfMz-317" edge="1">
          <mxGeometry relative="1" as="geometry">
            <mxPoint x="9030" y="490" as="sourcePoint" />
            <mxPoint x="9030" y="896.75" as="targetPoint" />
          </mxGeometry>
        </mxCell>
        <mxCell id="CPYO5AbDpD3RxbPcnfMz-325" style="edgeStyle=orthogonalEdgeStyle;rounded=0;orthogonalLoop=1;jettySize=auto;html=1;exitX=1;exitY=0.5;exitDx=0;exitDy=0;entryX=0.5;entryY=0;entryDx=0;entryDy=0;strokeColor=#00CC00;strokeWidth=2;fontStyle=1;" parent="1" source="CPYO5AbDpD3RxbPcnfMz-326" target="CPYO5AbDpD3RxbPcnfMz-331" edge="1">
          <mxGeometry relative="1" as="geometry" />
        </mxCell>
        <mxCell id="CPYO5AbDpD3RxbPcnfMz-326" value="2FA USING (ONE)&lt;br&gt;OTP: &lt;u&gt;AU.2.C&lt;/u&gt;&lt;br&gt;PIN: &lt;u&gt;AU.1.F&lt;/u&gt;&lt;br&gt;MEM. SECRET: &lt;u&gt;AU.1.D&lt;/u&gt;" style="rounded=0;whiteSpace=wrap;html=1;fontStyle=1;strokeWidth=2;fontSize=11;" parent="1" vertex="1">
          <mxGeometry x="9100" y="398" width="130" height="80" as="geometry" />
        </mxCell>
        <mxCell id="CPYO5AbDpD3RxbPcnfMz-327" style="edgeStyle=orthogonalEdgeStyle;rounded=0;orthogonalLoop=1;jettySize=auto;html=1;entryX=0.75;entryY=1;entryDx=0;entryDy=0;strokeColor=#00CC00;strokeWidth=2;fontStyle=1;" parent="1" source="CPYO5AbDpD3RxbPcnfMz-297" target="CPYO5AbDpD3RxbPcnfMz-326" edge="1">
          <mxGeometry relative="1" as="geometry">
            <mxPoint x="9220" y="1474" as="sourcePoint" />
          </mxGeometry>
        </mxCell>
        <mxCell id="CPYO5AbDpD3RxbPcnfMz-328" style="edgeStyle=orthogonalEdgeStyle;rounded=0;orthogonalLoop=1;jettySize=auto;html=1;entryX=0;entryY=0.5;entryDx=0;entryDy=0;strokeColor=#00CC00;strokeWidth=2;fontStyle=1;" parent="1" source="CPYO5AbDpD3RxbPcnfMz-297" target="CPYO5AbDpD3RxbPcnfMz-323" edge="1">
          <mxGeometry relative="1" as="geometry">
            <mxPoint x="8982.5" y="1470.5" as="sourcePoint" />
          </mxGeometry>
        </mxCell>
        <mxCell id="CPYO5AbDpD3RxbPcnfMz-329" value="" style="edgeStyle=orthogonalEdgeStyle;rounded=0;orthogonalLoop=1;jettySize=auto;html=1;exitX=0.5;exitY=1;exitDx=0;exitDy=0;strokeColor=#FF2617;strokeWidth=2;fontStyle=1;entryX=0.571;entryY=0.007;entryDx=0;entryDy=0;entryPerimeter=0;" parent="1" source="CPYO5AbDpD3RxbPcnfMz-331" target="CPYO5AbDpD3RxbPcnfMz-380" edge="1">
          <mxGeometry relative="1" as="geometry">
            <mxPoint x="9267.5" y="1203" as="targetPoint" />
            <Array as="points" />
          </mxGeometry>
        </mxCell>
        <mxCell id="CPYO5AbDpD3RxbPcnfMz-330" value="RESET COUNTER" style="edgeStyle=orthogonalEdgeStyle;rounded=0;orthogonalLoop=1;jettySize=auto;html=1;exitX=1;exitY=0.5;exitDx=0;exitDy=0;entryX=0.5;entryY=1;entryDx=0;entryDy=0;strokeColor=#00CC00;strokeWidth=2;fontStyle=1;" parent="1" source="CPYO5AbDpD3RxbPcnfMz-331" target="CPYO5AbDpD3RxbPcnfMz-284" edge="1">
          <mxGeometry x="-0.8229" relative="1" as="geometry">
            <mxPoint as="offset" />
            <Array as="points">
              <mxPoint x="9328" y="983" />
            </Array>
          </mxGeometry>
        </mxCell>
        <mxCell id="CPYO5AbDpD3RxbPcnfMz-331" value="IF &lt;br&gt;2FA &lt;br&gt;SUCCESS" style="rounded=0;whiteSpace=wrap;html=1;fontStyle=1;strokeWidth=2;fontSize=11;shape=rhombus;perimeter=rhombusPerimeter;" parent="1" vertex="1">
          <mxGeometry x="9217.5" y="942.5" width="100" height="81.5" as="geometry" />
        </mxCell>
        <mxCell id="CPYO5AbDpD3RxbPcnfMz-332" value="AC" style="ellipse;whiteSpace=wrap;html=1;fillColor=#dae8fc;strokeColor=#6c8ebf;gradientColor=#7ea6e0;fontStyle=1" parent="1" vertex="1">
          <mxGeometry x="9220" y="942.5" width="30" height="26" as="geometry" />
        </mxCell>
        <mxCell id="CPYO5AbDpD3RxbPcnfMz-333" value="AC" style="ellipse;whiteSpace=wrap;html=1;fillColor=#dae8fc;strokeColor=#6c8ebf;gradientColor=#7ea6e0;fontStyle=1" parent="1" vertex="1">
          <mxGeometry x="8980" y="942.5" width="30" height="26" as="geometry" />
        </mxCell>
        <mxCell id="cxd1ULnUOL-_W-ztbsEd-1" style="edgeStyle=orthogonalEdgeStyle;rounded=0;orthogonalLoop=1;jettySize=auto;html=1;exitX=0.75;exitY=1;exitDx=0;exitDy=0;entryX=0.5;entryY=0;entryDx=0;entryDy=0;strokeColor=#FF2617;strokeWidth=2;fontStyle=1;" parent="1" source="CPYO5AbDpD3RxbPcnfMz-380" target="CPYO5AbDpD3RxbPcnfMz-297" edge="1">
          <mxGeometry relative="1" as="geometry">
            <Array as="points">
              <mxPoint x="9490" y="1124" />
            </Array>
          </mxGeometry>
        </mxCell>
        <mxCell id="CPYO5AbDpD3RxbPcnfMz-380" value="EXCEPTION AND ERROR HANDLING (COUNTER)" style="rounded=0;whiteSpace=wrap;html=1;fontStyle=1;strokeWidth=2;fontSize=11;shape=label;boundedLbl=1;backgroundOutline=1;size=9.769240159254764;" parent="1" vertex="1">
          <mxGeometry x="8880" y="1094" width="680" height="30" as="geometry" />
        </mxCell>
        <mxCell id="CPYO5AbDpD3RxbPcnfMz-381" value="" style="edgeStyle=orthogonalEdgeStyle;rounded=0;orthogonalLoop=1;jettySize=auto;html=1;exitX=1;exitY=0.5;exitDx=0;exitDy=0;strokeColor=#00CC00;strokeWidth=2;fontStyle=1;" parent="1" source="CPYO5AbDpD3RxbPcnfMz-284" target="CPYO5AbDpD3RxbPcnfMz-383" edge="1">
          <mxGeometry relative="1" as="geometry">
            <mxPoint x="9393" y="299" as="sourcePoint" />
            <mxPoint x="9450" y="390" as="targetPoint" />
          </mxGeometry>
        </mxCell>
        <mxCell id="CPYO5AbDpD3RxbPcnfMz-382" style="edgeStyle=orthogonalEdgeStyle;rounded=0;orthogonalLoop=1;jettySize=auto;html=1;exitX=0.5;exitY=0;exitDx=0;exitDy=0;entryX=0;entryY=0.5;entryDx=0;entryDy=0;entryPerimeter=0;strokeColor=#FF2617;strokeWidth=2;fontStyle=1;" parent="1" source="CPYO5AbDpD3RxbPcnfMz-383" target="CPYO5AbDpD3RxbPcnfMz-385" edge="1">
          <mxGeometry relative="1" as="geometry" />
        </mxCell>
        <mxCell id="CPYO5AbDpD3RxbPcnfMz-383" value="IF &lt;br&gt;&amp;gt;16 YEARS &lt;br&gt;OLD" style="rounded=0;whiteSpace=wrap;html=1;fontStyle=1;strokeWidth=2;fontSize=11;shape=rhombus;perimeter=rhombusPerimeter;" parent="1" vertex="1">
          <mxGeometry x="9412.5" y="270" width="75" height="57" as="geometry" />
        </mxCell>
        <mxCell id="CPYO5AbDpD3RxbPcnfMz-385" value="&lt;span style=&quot;border-color: var(--border-color);&quot;&gt;&lt;b&gt;RETURN TO HOME PAGE:&lt;br&gt;&lt;/b&gt;PROCEED OFFLINE&lt;br&gt;&lt;/span&gt;" style="strokeWidth=2;html=1;shape=mxgraph.flowchart.terminator;whiteSpace=wrap;fillColor=#f8cecc;strokeColor=#b85450;" parent="1" vertex="1">
          <mxGeometry x="9487.5" y="220" width="182.5" height="30" as="geometry" />
        </mxCell>
        <mxCell id="CPYO5AbDpD3RxbPcnfMz-405" style="edgeStyle=orthogonalEdgeStyle;rounded=0;orthogonalLoop=1;jettySize=auto;html=1;exitX=1;exitY=0.5;exitDx=0;exitDy=0;entryX=0;entryY=0.5;entryDx=0;entryDy=0;strokeColor=#00CC00;strokeWidth=2;fontStyle=1;" parent="1" source="CPYO5AbDpD3RxbPcnfMz-402" target="CPYO5AbDpD3RxbPcnfMz-404" edge="1">
          <mxGeometry relative="1" as="geometry" />
        </mxCell>
        <mxCell id="CPYO5AbDpD3RxbPcnfMz-402" value="FILL UPDATE FORM: CHOOSE BIOMETRIC(s)&lt;br&gt;1. FINGERPRINT&lt;br&gt;2. IRIS&lt;br&gt;3. FACIAL" style="shape=parallelogram;perimeter=parallelogramPerimeter;whiteSpace=wrap;html=1;fixedSize=1;fontSize=11;rounded=0;fontStyle=1;strokeWidth=2;" parent="1" vertex="1">
          <mxGeometry x="9590" y="312.5" width="150" height="77.5" as="geometry" />
        </mxCell>
        <mxCell id="CPYO5AbDpD3RxbPcnfMz-411" style="edgeStyle=orthogonalEdgeStyle;rounded=0;orthogonalLoop=1;jettySize=auto;html=1;exitX=0.5;exitY=1;exitDx=0;exitDy=0;entryX=0.5;entryY=0;entryDx=0;entryDy=0;strokeColor=#00CC00;strokeWidth=2;fontStyle=1;" parent="1" source="CPYO5AbDpD3RxbPcnfMz-404" target="CPYO5AbDpD3RxbPcnfMz-410" edge="1">
          <mxGeometry relative="1" as="geometry" />
        </mxCell>
        <mxCell id="CPYO5AbDpD3RxbPcnfMz-404" value="FILL APPROPRIATE REASON TO UPDATE" style="shape=parallelogram;perimeter=parallelogramPerimeter;whiteSpace=wrap;html=1;fixedSize=1;fontSize=11;rounded=0;fontStyle=1;strokeWidth=2;" parent="1" vertex="1">
          <mxGeometry x="9770" y="320.85999999999996" width="150" height="61.04" as="geometry" />
        </mxCell>
        <mxCell id="CPYO5AbDpD3RxbPcnfMz-420" style="edgeStyle=orthogonalEdgeStyle;rounded=0;orthogonalLoop=1;jettySize=auto;html=1;exitX=1;exitY=0.5;exitDx=0;exitDy=0;exitPerimeter=0;entryX=0.5;entryY=1;entryDx=0;entryDy=0;strokeColor=#00CC00;strokeWidth=2;fontStyle=1;" parent="1" source="CPYO5AbDpD3RxbPcnfMz-407" target="CPYO5AbDpD3RxbPcnfMz-419" edge="1">
          <mxGeometry relative="1" as="geometry" />
        </mxCell>
        <mxCell id="CPYO5AbDpD3RxbPcnfMz-407" value="STORE BIOMETRIC UPDATE STATUS IN UIN ACCOUNT" style="rounded=0;whiteSpace=wrap;html=1;fontSize=11;fontStyle=1;strokeWidth=2;" parent="1" vertex="1">
          <mxGeometry x="9910" y="1190" width="140" height="74" as="geometry" />
        </mxCell>
        <mxCell id="CPYO5AbDpD3RxbPcnfMz-408" value="HSM" style="ellipse;whiteSpace=wrap;html=1;fillColor=#dae8fc;strokeColor=#6c8ebf;gradientColor=#7ea6e0;fontStyle=1" parent="1" vertex="1">
          <mxGeometry x="9880" y="1233.5" width="30" height="26" as="geometry" />
        </mxCell>
        <mxCell id="CPYO5AbDpD3RxbPcnfMz-409" value="KM" style="ellipse;whiteSpace=wrap;html=1;fillColor=#dae8fc;strokeColor=#6c8ebf;gradientColor=#7ea6e0;fontStyle=1" parent="1" vertex="1">
          <mxGeometry x="9880" y="1190" width="30" height="26" as="geometry" />
        </mxCell>
        <mxCell id="CPYO5AbDpD3RxbPcnfMz-414" style="edgeStyle=orthogonalEdgeStyle;rounded=0;orthogonalLoop=1;jettySize=auto;html=1;exitX=1;exitY=0.5;exitDx=0;exitDy=0;entryX=0;entryY=0.5;entryDx=0;entryDy=0;strokeColor=#00CC00;strokeWidth=2;fontStyle=1;" parent="1" source="CPYO5AbDpD3RxbPcnfMz-410" target="CPYO5AbDpD3RxbPcnfMz-413" edge="1">
          <mxGeometry relative="1" as="geometry">
            <Array as="points">
              <mxPoint x="9910" y="663" />
              <mxPoint x="9910" y="438" />
            </Array>
          </mxGeometry>
        </mxCell>
        <mxCell id="CPYO5AbDpD3RxbPcnfMz-410" value="WARN USER OF IMMEDIATE REVOCATION OF AUTHENTICATION FOR SELECTED BIOMETRIC(s)" style="rounded=0;whiteSpace=wrap;html=1;fontStyle=1;strokeWidth=2;fontSize=11;" parent="1" vertex="1">
          <mxGeometry x="9787.5" y="621.72" width="115" height="82.28" as="geometry" />
        </mxCell>
        <mxCell id="CPYO5AbDpD3RxbPcnfMz-415" style="edgeStyle=orthogonalEdgeStyle;rounded=0;orthogonalLoop=1;jettySize=auto;html=1;exitX=0.5;exitY=1;exitDx=0;exitDy=0;entryX=0.5;entryY=0;entryDx=0;entryDy=0;strokeColor=#00CC00;strokeWidth=2;fontStyle=1;" parent="1" source="CPYO5AbDpD3RxbPcnfMz-413" target="CPYO5AbDpD3RxbPcnfMz-425" edge="1">
          <mxGeometry relative="1" as="geometry" />
        </mxCell>
        <mxCell id="CPYO5AbDpD3RxbPcnfMz-417" style="edgeStyle=orthogonalEdgeStyle;rounded=0;orthogonalLoop=1;jettySize=auto;html=1;exitX=0.5;exitY=0;exitDx=0;exitDy=0;entryX=0;entryY=0.5;entryDx=0;entryDy=0;entryPerimeter=0;strokeColor=#FF2617;strokeWidth=2;fontStyle=1;" parent="1" source="CPYO5AbDpD3RxbPcnfMz-413" target="CPYO5AbDpD3RxbPcnfMz-416" edge="1">
          <mxGeometry relative="1" as="geometry" />
        </mxCell>
        <mxCell id="CPYO5AbDpD3RxbPcnfMz-413" value="IF &lt;br&gt;CONFIRM TO PROCEED" style="rounded=0;whiteSpace=wrap;html=1;fontStyle=1;strokeWidth=2;fontSize=11;shape=rhombus;perimeter=rhombusPerimeter;" parent="1" vertex="1">
          <mxGeometry x="9930" y="405.5" width="100" height="65" as="geometry" />
        </mxCell>
        <mxCell id="CPYO5AbDpD3RxbPcnfMz-442" style="edgeStyle=orthogonalEdgeStyle;rounded=0;orthogonalLoop=1;jettySize=auto;html=1;exitX=1;exitY=0.5;exitDx=0;exitDy=0;exitPerimeter=0;strokeColor=#00CC00;strokeWidth=2;fontStyle=1;" parent="1" source="CPYO5AbDpD3RxbPcnfMz-416" target="CPYO5AbDpD3RxbPcnfMz-436" edge="1">
          <mxGeometry relative="1" as="geometry">
            <Array as="points">
              <mxPoint x="10383" y="290" />
              <mxPoint x="10383" y="630" />
              <mxPoint x="10281" y="630" />
            </Array>
          </mxGeometry>
        </mxCell>
        <mxCell id="CPYO5AbDpD3RxbPcnfMz-416" value="&lt;span style=&quot;border-color: var(--border-color);&quot;&gt;&lt;b&gt;TERMINATE PROCESS&lt;/b&gt;&lt;br&gt;&lt;/span&gt;" style="strokeWidth=2;html=1;shape=mxgraph.flowchart.terminator;whiteSpace=wrap;fillColor=#f8cecc;strokeColor=#b85450;" parent="1" vertex="1">
          <mxGeometry x="10180" y="275" width="182.5" height="30" as="geometry" />
        </mxCell>
        <mxCell id="CPYO5AbDpD3RxbPcnfMz-418" value="IDA" style="ellipse;whiteSpace=wrap;html=1;fillColor=#dae8fc;strokeColor=#6c8ebf;gradientColor=#7ea6e0;fontStyle=1" parent="1" vertex="1">
          <mxGeometry x="9910" y="1164" width="30" height="26" as="geometry" />
        </mxCell>
        <mxCell id="CPYO5AbDpD3RxbPcnfMz-439" style="edgeStyle=orthogonalEdgeStyle;rounded=0;orthogonalLoop=1;jettySize=auto;html=1;exitX=0.5;exitY=0;exitDx=0;exitDy=0;entryX=0;entryY=0.5;entryDx=0;entryDy=0;strokeColor=#00CC00;strokeWidth=2;fontStyle=1;" parent="1" source="CPYO5AbDpD3RxbPcnfMz-419" target="CPYO5AbDpD3RxbPcnfMz-421" edge="1">
          <mxGeometry relative="1" as="geometry" />
        </mxCell>
        <mxCell id="CPYO5AbDpD3RxbPcnfMz-419" value="RECEIVE BIOMETRIC UPDATE REQUEST SUCCESSFUL" style="rounded=0;whiteSpace=wrap;html=1;fontStyle=1;strokeWidth=2;fontSize=11;" parent="1" vertex="1">
          <mxGeometry x="10060" y="407.5" width="135" height="60" as="geometry" />
        </mxCell>
        <mxCell id="CPYO5AbDpD3RxbPcnfMz-440" style="edgeStyle=orthogonalEdgeStyle;rounded=0;orthogonalLoop=1;jettySize=auto;html=1;exitX=0.5;exitY=1;exitDx=0;exitDy=0;entryX=0.5;entryY=0;entryDx=0;entryDy=0;strokeColor=#00CC00;strokeWidth=2;fontStyle=1;" parent="1" source="CPYO5AbDpD3RxbPcnfMz-421" target="CPYO5AbDpD3RxbPcnfMz-423" edge="1">
          <mxGeometry relative="1" as="geometry" />
        </mxCell>
        <mxCell id="CPYO5AbDpD3RxbPcnfMz-421" value="DOWNLOAD ACKNOWLEDGEMENT FOR BIOMETRIC UPDATE" style="rounded=0;whiteSpace=wrap;html=1;fontStyle=1;strokeWidth=2;fontSize=11;" parent="1" vertex="1">
          <mxGeometry x="10212.5" y="323.61" width="135" height="60" as="geometry" />
        </mxCell>
        <mxCell id="CPYO5AbDpD3RxbPcnfMz-441" style="edgeStyle=orthogonalEdgeStyle;rounded=0;orthogonalLoop=1;jettySize=auto;html=1;exitX=0.5;exitY=1;exitDx=0;exitDy=0;strokeColor=#00CC00;strokeWidth=2;fontStyle=1;" parent="1" source="CPYO5AbDpD3RxbPcnfMz-423" target="CPYO5AbDpD3RxbPcnfMz-436" edge="1">
          <mxGeometry relative="1" as="geometry" />
        </mxCell>
        <mxCell id="CPYO5AbDpD3RxbPcnfMz-423" value="PROCEED OFFLINE FOR BIOMETRIC COLLECTION" style="rounded=0;whiteSpace=wrap;html=1;fontStyle=1;strokeWidth=2;fontSize=11;" parent="1" vertex="1">
          <mxGeometry x="10222.5" y="416" width="115" height="62" as="geometry" />
        </mxCell>
        <mxCell id="CPYO5AbDpD3RxbPcnfMz-424" value="" style="group" parent="1" vertex="1" connectable="0">
          <mxGeometry x="9892" y="724" width="145" height="80.25" as="geometry" />
        </mxCell>
        <mxCell id="CPYO5AbDpD3RxbPcnfMz-425" value="MASK &amp;amp; ENCRYPT REQUESTED CHANGE OF EMAIL/PHONE NUMBER" style="rounded=0;whiteSpace=wrap;html=1;fontStyle=1;strokeWidth=2;fontSize=11;" parent="CPYO5AbDpD3RxbPcnfMz-424" vertex="1">
          <mxGeometry x="30" y="0.25" width="115" height="80" as="geometry" />
        </mxCell>
        <mxCell id="CPYO5AbDpD3RxbPcnfMz-426" value="KM" style="ellipse;whiteSpace=wrap;html=1;fillColor=#dae8fc;strokeColor=#6c8ebf;gradientColor=#7ea6e0;fontStyle=1" parent="CPYO5AbDpD3RxbPcnfMz-424" vertex="1">
          <mxGeometry width="30" height="26" as="geometry" />
        </mxCell>
        <mxCell id="CPYO5AbDpD3RxbPcnfMz-427" value="HSM" style="ellipse;whiteSpace=wrap;html=1;fillColor=#dae8fc;strokeColor=#6c8ebf;gradientColor=#7ea6e0;fontStyle=1" parent="CPYO5AbDpD3RxbPcnfMz-424" vertex="1">
          <mxGeometry y="26" width="30" height="26" as="geometry" />
        </mxCell>
        <mxCell id="CPYO5AbDpD3RxbPcnfMz-428" value="CA" style="ellipse;whiteSpace=wrap;html=1;fillColor=#dae8fc;strokeColor=#6c8ebf;gradientColor=#7ea6e0;fontStyle=1" parent="CPYO5AbDpD3RxbPcnfMz-424" vertex="1">
          <mxGeometry y="52" width="30" height="26" as="geometry" />
        </mxCell>
        <mxCell id="CPYO5AbDpD3RxbPcnfMz-429" style="edgeStyle=orthogonalEdgeStyle;rounded=0;orthogonalLoop=1;jettySize=auto;html=1;exitX=0;exitY=0.5;exitDx=0;exitDy=0;entryX=0.5;entryY=0;entryDx=0;entryDy=0;strokeColor=#00CC00;strokeWidth=2;fontStyle=1;" parent="1" source="CPYO5AbDpD3RxbPcnfMz-431" target="p-32p7-hqkPYB9SNNwEo-2" edge="1">
          <mxGeometry relative="1" as="geometry">
            <Array as="points">
              <mxPoint x="9845" y="1012" />
            </Array>
          </mxGeometry>
        </mxCell>
        <mxCell id="CPYO5AbDpD3RxbPcnfMz-432" value="" style="edgeStyle=orthogonalEdgeStyle;rounded=0;orthogonalLoop=1;jettySize=auto;html=1;exitX=0.5;exitY=1;exitDx=0;exitDy=0;entryX=0.5;entryY=0;entryDx=0;entryDy=0;strokeColor=#00CC00;strokeWidth=2;fontStyle=1;" parent="1" source="CPYO5AbDpD3RxbPcnfMz-425" target="CPYO5AbDpD3RxbPcnfMz-431" edge="1">
          <mxGeometry relative="1" as="geometry">
            <mxPoint x="9980" y="804" as="sourcePoint" />
            <mxPoint x="9979" y="1151" as="targetPoint" />
          </mxGeometry>
        </mxCell>
        <mxCell id="CPYO5AbDpD3RxbPcnfMz-433" value="STATUS PENDING" style="edgeStyle=orthogonalEdgeStyle;rounded=0;orthogonalLoop=1;jettySize=auto;html=1;exitX=1;exitY=0.5;exitDx=0;exitDy=0;entryX=0.855;entryY=0;entryDx=0;entryDy=4.35;entryPerimeter=0;strokeColor=#FF2617;strokeWidth=2;fontStyle=1;" parent="1" source="CPYO5AbDpD3RxbPcnfMz-431" target="CPYO5AbDpD3RxbPcnfMz-407" edge="1">
          <mxGeometry relative="1" as="geometry">
            <Array as="points">
              <mxPoint x="10040" y="1012" />
              <mxPoint x="10040" y="1102" />
              <mxPoint x="10030" y="1102" />
            </Array>
          </mxGeometry>
        </mxCell>
        <mxCell id="CPYO5AbDpD3RxbPcnfMz-431" value="IF &lt;br&gt;SELECTED BIOMETRIC(s) EXIST" style="rounded=0;whiteSpace=wrap;html=1;fontStyle=1;strokeWidth=2;fontSize=11;shape=rhombus;perimeter=rhombusPerimeter;" parent="1" vertex="1">
          <mxGeometry x="9926" y="970.8599999999999" width="105" height="82.25" as="geometry" />
        </mxCell>
        <mxCell id="CPYO5AbDpD3RxbPcnfMz-430" value="AC" style="ellipse;whiteSpace=wrap;html=1;fillColor=#dae8fc;strokeColor=#6c8ebf;gradientColor=#7ea6e0;fontStyle=1" parent="1" vertex="1">
          <mxGeometry x="9926" y="972.1299999999999" width="30" height="26" as="geometry" />
        </mxCell>
        <mxCell id="CPYO5AbDpD3RxbPcnfMz-361" value="NOTIFICATION GENERATOR" style="rounded=0;whiteSpace=wrap;html=1;fontStyle=1;strokeWidth=2;fontSize=11;fillColor=default;strokeColor=default;" parent="1" vertex="1">
          <mxGeometry x="10060" y="946.8700000000001" width="200" height="30.25" as="geometry" />
        </mxCell>
        <mxCell id="CPYO5AbDpD3RxbPcnfMz-435" value="" style="edgeStyle=orthogonalEdgeStyle;rounded=0;orthogonalLoop=1;jettySize=auto;html=1;strokeColor=#00CC00;fontStyle=1;strokeWidth=2;" parent="1" source="CPYO5AbDpD3RxbPcnfMz-436" target="CPYO5AbDpD3RxbPcnfMz-437" edge="1">
          <mxGeometry relative="1" as="geometry" />
        </mxCell>
        <mxCell id="CPYO5AbDpD3RxbPcnfMz-436" value="LOGS THE PROCESS AND STATUS" style="rounded=0;whiteSpace=wrap;html=1;fontStyle=1;strokeWidth=2;" parent="1" vertex="1">
          <mxGeometry x="10220.5" y="1090" width="120" height="62.55" as="geometry" />
        </mxCell>
        <mxCell id="CPYO5AbDpD3RxbPcnfMz-437" value="&lt;b&gt;END&lt;/b&gt;" style="strokeWidth=2;html=1;shape=mxgraph.flowchart.terminator;whiteSpace=wrap;fillColor=#f8cecc;strokeColor=#b85450;" parent="1" vertex="1">
          <mxGeometry x="10230.5" y="1181.55" width="100" height="40" as="geometry" />
        </mxCell>
        <mxCell id="CPYO5AbDpD3RxbPcnfMz-438" value="IDA" style="ellipse;whiteSpace=wrap;html=1;fillColor=#dae8fc;strokeColor=#6c8ebf;gradientColor=#7ea6e0;fontStyle=1" parent="1" vertex="1">
          <mxGeometry x="10220.5" y="1064" width="30" height="26" as="geometry" />
        </mxCell>
        <mxCell id="CPYO5AbDpD3RxbPcnfMz-389" value="" style="group" parent="1" vertex="1" connectable="0">
          <mxGeometry x="8709" y="534" width="1731" height="60" as="geometry" />
        </mxCell>
        <mxCell id="CPYO5AbDpD3RxbPcnfMz-390" value="" style="group" parent="CPYO5AbDpD3RxbPcnfMz-389" vertex="1" connectable="0">
          <mxGeometry y="20" width="1731" height="40" as="geometry" />
        </mxCell>
        <mxCell id="CPYO5AbDpD3RxbPcnfMz-391" value="IDS, IPS, HONEYPOT" style="shape=label;whiteSpace=wrap;html=1;boundedLbl=1;backgroundOutline=1;darkOpacity=0.05;darkOpacity2=0.1;fillColor=#f0a30a;strokeColor=#BD7000;rounded=0;fontColor=#000000;fontSize=12;fontStyle=1" parent="CPYO5AbDpD3RxbPcnfMz-390" vertex="1">
          <mxGeometry y="20" width="1730.9999999999998" height="20" as="geometry" />
        </mxCell>
        <mxCell id="CPYO5AbDpD3RxbPcnfMz-392" value="SINGLE/ DUAL FIREWALL" style="shape=label;whiteSpace=wrap;html=1;boundedLbl=1;backgroundOutline=1;darkOpacity=0.05;darkOpacity2=0.1;fillColor=#e51400;fontColor=#ffffff;strokeColor=#B20000;rounded=0;fontStyle=1" parent="CPYO5AbDpD3RxbPcnfMz-390" vertex="1">
          <mxGeometry width="1730.9999999999998" height="20" as="geometry" />
        </mxCell>
        <mxCell id="CPYO5AbDpD3RxbPcnfMz-393" value="API/ HTTPS (SSL/TLS)" style="shape=label;whiteSpace=wrap;html=1;boundedLbl=1;backgroundOutline=1;darkOpacity=0.05;darkOpacity2=0.1;fillColor=#f8cecc;strokeColor=#b85450;rounded=0;fontStyle=1" parent="CPYO5AbDpD3RxbPcnfMz-389" vertex="1">
          <mxGeometry width="1731" height="20" as="geometry" />
        </mxCell>
        <mxCell id="CPYO5AbDpD3RxbPcnfMz-394" value="" style="group" parent="1" vertex="1" connectable="0">
          <mxGeometry x="8710" y="834" width="1730" height="60" as="geometry" />
        </mxCell>
        <mxCell id="CPYO5AbDpD3RxbPcnfMz-395" value="" style="group" parent="CPYO5AbDpD3RxbPcnfMz-394" vertex="1" connectable="0">
          <mxGeometry y="20" width="1730" height="40" as="geometry" />
        </mxCell>
        <mxCell id="CPYO5AbDpD3RxbPcnfMz-396" value="SINGLE / DUAL FIREWALL" style="shape=label;whiteSpace=wrap;html=1;boundedLbl=1;backgroundOutline=1;darkOpacity=0.05;darkOpacity2=0.1;fillColor=#e51400;fontColor=#ffffff;strokeColor=#B20000;rounded=0;fontStyle=1" parent="CPYO5AbDpD3RxbPcnfMz-395" vertex="1">
          <mxGeometry width="1730" height="20" as="geometry" />
        </mxCell>
        <mxCell id="CPYO5AbDpD3RxbPcnfMz-397" value="IDS, IPS, HONEYPOT" style="shape=label;whiteSpace=wrap;html=1;boundedLbl=1;backgroundOutline=1;darkOpacity=0.05;darkOpacity2=0.1;fillColor=#f0a30a;strokeColor=#BD7000;rounded=0;fontColor=#000000;fontSize=12;fontStyle=1" parent="CPYO5AbDpD3RxbPcnfMz-395" vertex="1">
          <mxGeometry y="20" width="1730" height="20" as="geometry" />
        </mxCell>
        <mxCell id="CPYO5AbDpD3RxbPcnfMz-398" value="API/ HTTPS (SSL/TLS)" style="shape=label;whiteSpace=wrap;html=1;boundedLbl=1;backgroundOutline=1;darkOpacity=0.05;darkOpacity2=0.1;fillColor=#f8cecc;strokeColor=#b85450;rounded=0;fontStyle=1" parent="CPYO5AbDpD3RxbPcnfMz-394" vertex="1">
          <mxGeometry width="1730" height="20" as="geometry" />
        </mxCell>
        <mxCell id="01w5FAMEEElFUmkY92BY-1" value="NOTIFICATION GENERATOR" style="rounded=0;whiteSpace=wrap;html=1;fontStyle=1;strokeWidth=2;fontSize=11;fillColor=default;strokeColor=default;" parent="1" vertex="1">
          <mxGeometry x="8880" y="1140" width="560" height="30.25" as="geometry" />
        </mxCell>
        <mxCell id="glx3Pz8O1VB4NQ9BH-CM-1" style="edgeStyle=orthogonalEdgeStyle;rounded=0;orthogonalLoop=1;jettySize=auto;html=1;exitX=1;exitY=0.5;exitDx=0;exitDy=0;entryX=0.5;entryY=1;entryDx=0;entryDy=0;entryPerimeter=0;strokeColor=#FF2617;strokeWidth=2;fontStyle=1;" parent="1" source="CPYO5AbDpD3RxbPcnfMz-297" target="CPYO5AbDpD3RxbPcnfMz-437" edge="1">
          <mxGeometry relative="1" as="geometry">
            <Array as="points">
              <mxPoint x="9537" y="1280" />
              <mxPoint x="10281" y="1280" />
            </Array>
          </mxGeometry>
        </mxCell>
        <mxCell id="p-32p7-hqkPYB9SNNwEo-3" style="edgeStyle=orthogonalEdgeStyle;rounded=0;orthogonalLoop=1;jettySize=auto;html=1;exitX=1;exitY=0.5;exitDx=0;exitDy=0;strokeColor=#00CC00;strokeWidth=2;fontStyle=1;" parent="1" source="p-32p7-hqkPYB9SNNwEo-2" target="CPYO5AbDpD3RxbPcnfMz-407" edge="1">
          <mxGeometry relative="1" as="geometry" />
        </mxCell>
        <mxCell id="p-32p7-hqkPYB9SNNwEo-2" value="DEACTIVATE AUTHENTICATOR(s) FOR SELECTED BIOMETRIC(s)" style="rounded=0;whiteSpace=wrap;html=1;fontStyle=1;strokeWidth=2;fontSize=11;fillColor=default;strokeColor=default;" parent="1" vertex="1">
          <mxGeometry x="9780" y="1084.5" width="130" height="66" as="geometry" />
        </mxCell>
        <mxCell id="Qd5jfBexVLlcY652j2pu-1" value="&lt;div style=&quot;font-size: 18px;&quot;&gt;&lt;font style=&quot;font-size: 18px;&quot;&gt;&lt;b style=&quot;font-size: 18px;&quot;&gt;Purpose:&lt;/b&gt;&lt;/font&gt;&lt;/div&gt;&lt;div style=&quot;font-size: 18px;&quot;&gt;This SOP o&lt;span style=&quot;background-color: rgb(255, 255, 255); color: rgb(13, 13, 13); font-size: 18px; white-space-collapse: preserve;&quot;&gt;utlines the process for users to update their biometric data online.&lt;/span&gt;&lt;br style=&quot;font-size: 18px;&quot;&gt;&lt;/div&gt;" style="whiteSpace=wrap;html=1;align=left;rounded=0;strokeWidth=2;verticalAlign=middle;fontFamily=Helvetica;fontSize=18;fontStyle=0;" vertex="1" parent="1">
          <mxGeometry x="8680" y="110" width="1790" height="60" as="geometry" />
        </mxCell>
      </root>
    </mxGraphModel>
  </diagram>
</mxfile>
